<svg width="23" height="21" viewBox="0 0 23 21" fill="none" xmlns="http://www.w3.org/2000/svg">
<g clip-path="url(#clip0_31_44)">
<path d="M21.5193 2.573H4.26706C4.08392 2.573 3.93549 2.7056 3.93549 2.86887C3.93549 3.03214 4.08392 3.16473 4.26706 3.16473H21.5193C21.8597 3.16473 22.1369 3.41208 22.1369 3.71619V11.0021C21.9088 10.6893 21.6286 10.4101 21.3067 10.1729C20.549 7.67249 21.4866 6.01721 21.4866 5.53564C21.4866 5.06079 20.9974 4.72021 20.5237 4.88593C20.3775 4.92865 19.5275 5.2915 18.3053 5.2915H15.4269C15.2437 5.2915 15.0953 5.42395 15.0953 5.58737C15.0953 5.75064 15.2437 5.88324 15.4269 5.88324H18.3053C19.6533 5.88324 20.5949 5.48865 20.7351 5.44684C20.8211 5.42242 20.8349 5.52939 20.8151 5.58371C20.33 6.91687 20.2173 8.34662 20.5078 9.71259C19.9635 9.47302 19.3513 9.33859 18.7044 9.33859H13.0842C13.1447 8.95468 13.1752 8.56619 13.1752 8.17404C13.1752 7.00751 12.8621 5.94366 12.7406 5.67252C12.6813 5.50711 12.7348 5.42593 12.7605 5.43738C13.2246 5.6069 13.6692 5.7189 14.0443 5.78345C14.2248 5.81412 14.398 5.70929 14.4325 5.54861C14.4671 5.38809 14.3494 5.23306 14.1699 5.20224C13.5512 5.09604 13.1543 4.9314 13.0002 4.88547C12.4544 4.69778 11.8622 5.15616 12.1076 5.84845C12.1555 6.01889 12.7398 7.43079 12.4139 9.33859H10.7145C10.399 7.4993 10.9462 6.15088 11.0577 5.75018C11.2406 5.20087 10.6909 4.69092 10.1296 4.88593C10.1031 4.89386 10.0717 4.90485 10.0284 4.92026C8.71324 5.38687 8.10721 5.2915 4.82538 5.2915C3.6217 5.2915 2.82809 4.95154 2.60596 4.88547C2.07261 4.70023 1.46539 5.14899 1.71351 5.84845C1.71385 5.84998 1.71437 5.85165 1.71522 5.85318C2.21796 7.26233 2.24874 8.80408 1.80671 10.2285C1.51583 10.4529 1.26036 10.7134 1.04986 11.0021V3.71619C1.04986 3.41208 1.32705 3.16473 1.66751 3.16473H2.94078C3.12375 3.16473 3.27235 3.03214 3.27235 2.86887C3.27235 2.7056 3.12375 2.573 2.94078 2.573H1.66751C0.961451 2.573 0.386719 3.08585 0.386719 3.71619V16.366C0.386719 16.7586 0.744451 17.0777 1.18426 17.0777H2.64273V18.1609C2.64273 18.5267 2.97601 18.8245 3.38641 18.8245H5.17952C5.58975 18.8245 5.92354 18.5267 5.92354 18.1609V17.0777H17.2633V18.1609C17.2633 18.5267 17.597 18.8245 18.0073 18.8245H19.8004C20.2108 18.8245 20.5441 18.5267 20.5441 18.1609V17.0777H22.0025C22.4423 17.0777 22.8001 16.7586 22.8001 16.366C22.8001 15.8796 22.8001 4.36453 22.8001 3.71619C22.8001 3.08585 22.2253 2.573 21.5193 2.573ZM5.2604 18.1609C5.2604 18.2004 5.22415 18.2328 5.17952 18.2328H3.38641C3.3416 18.2328 3.30587 18.2004 3.30587 18.1609V17.0777H5.2604V18.1609ZM19.8809 18.1609C19.8809 18.2004 19.8452 18.2328 19.8004 18.2328H18.0073C17.9626 18.2328 17.9264 18.2004 17.9264 18.1609V17.0777H19.8809V18.1609ZM22.1369 16.366C22.1369 16.4323 22.0767 16.486 22.0025 16.486C21.9292 16.486 1.43495 16.486 1.18426 16.486C1.11005 16.486 1.04986 16.4323 1.04986 16.366V15.1792H22.1369V16.366ZM22.1369 14.5875H1.04986C1.04986 12.5963 1.04986 13.3971 1.04986 12.9935C1.04986 11.4205 2.40948 9.93033 4.62548 9.93033C4.80862 9.93033 4.95705 9.79773 4.95705 9.63446C4.95705 9.47104 4.80862 9.33859 4.62548 9.33859C3.92215 9.33859 3.30501 9.42404 2.61451 9.74127C2.90231 8.39575 2.8139 6.98462 2.34878 5.67877C2.32296 5.6214 2.29799 5.48254 2.34912 5.44135C2.3575 5.43433 2.36246 5.43585 2.36639 5.43738C3.20292 5.74301 4.01295 5.88324 4.82538 5.88324C8.14176 5.88324 8.83226 5.98105 10.2733 5.47018C10.2734 5.47018 10.3754 5.43555 10.3754 5.43539C10.3795 5.43661 10.3954 5.44485 10.4099 5.46744C10.4434 5.51932 10.4263 5.56372 10.4152 5.60309C10.3118 5.98288 9.73462 7.39828 10.0438 9.33859H5.95175C5.76878 9.33859 5.62018 9.47104 5.62018 9.63446C5.62018 9.79773 5.76878 9.93033 5.95175 9.93033H18.7044C20.5931 9.93033 22.1369 11.3021 22.1369 12.9935V14.5875Z" fill="#232323"/>
</g>
<defs>
<clipPath id="clip0_31_44">
<rect width="22.4134" height="20" fill="white" transform="translate(0.386719 0.697998)"/>
</clipPath>
</defs>
</svg>
