<svg width="21" height="20" viewBox="0 0 21 20" fill="none" xmlns="http://www.w3.org/2000/svg">
<path d="M16.7881 17.4955C15.052 17.4955 13.3367 17.1172 11.6423 16.3605C9.94781 15.6038 8.40614 14.5308 7.01725 13.1413C5.62836 11.7519 4.55559 10.2102 3.79892 8.51632C3.04225 6.82243 2.66364 5.10715 2.66309 3.37048C2.66309 3.12048 2.74642 2.91215 2.91309 2.74548C3.07975 2.57882 3.28809 2.49548 3.53809 2.49548H6.91309C7.10753 2.49548 7.28114 2.56159 7.43392 2.69382C7.5867 2.82604 7.67697 2.98215 7.70475 3.16215L8.24642 6.07882C8.2742 6.30104 8.26725 6.48854 8.22559 6.64132C8.18392 6.79409 8.10753 6.92604 7.99642 7.03715L5.97559 9.07882C6.25336 9.59271 6.58309 10.0891 6.96475 10.568C7.34642 11.0469 7.7667 11.5088 8.22559 11.9538C8.65614 12.3844 9.10753 12.7838 9.57975 13.1522C10.052 13.5205 10.552 13.8572 11.0798 14.1621L13.0381 12.2038C13.1631 12.0788 13.3264 11.9852 13.5281 11.923C13.7298 11.8608 13.9275 11.8433 14.1214 11.8705L16.9964 12.4538C17.1909 12.5094 17.3506 12.6102 17.4756 12.7563C17.6006 12.9024 17.6631 13.0655 17.6631 13.2455V16.6205C17.6631 16.8705 17.5798 17.0788 17.4131 17.2455C17.2464 17.4122 17.0381 17.4955 16.7881 17.4955Z" fill="white"/>
</svg>
