<svg width="50" height="51" viewBox="0 0 50 51" fill="none" xmlns="http://www.w3.org/2000/svg">
<mask id="mask0_184_184" style="mask-type:luminance" maskUnits="userSpaceOnUse" x="0" y="0" width="50" height="51">
<path d="M0 0.0848427H50V50.0848H0V0.0848427Z" fill="white"/>
</mask>
<g mask="url(#mask0_184_184)">
<path d="M3.78643 7.99087L2.03125 6.23569L3.69189 4.57505C4.60898 3.65796 6.096 3.65796 7.01318 4.57505L13.6557 11.2176C14.5728 12.1347 14.5728 13.6217 13.6557 14.5388L11.995 16.1995L6.06807 10.2725" stroke="black" stroke-width="1.5" stroke-miterlimit="10" stroke-linecap="round" stroke-linejoin="round"/>
<path d="M40.7792 44.9836L30.8154 35.0198L32.4761 33.3593C33.3932 32.4421 34.8802 32.4421 35.7973 33.3593L42.4397 40.0017C43.3569 40.9188 43.3569 42.4058 42.4397 43.3229L40.7792 44.9836Z" stroke="black" stroke-width="1.5" stroke-miterlimit="10" stroke-linecap="round" stroke-linejoin="round"/>
<path d="M40.7792 44.9836C36.8048 48.9578 24.9091 43.5056 14.2091 32.8057C3.50924 22.1057 -1.94301 10.2099 2.0313 6.23573" stroke="black" stroke-width="1.5" stroke-miterlimit="10" stroke-linecap="round" stroke-linejoin="round"/>
<path d="M30.8152 35.0198C28.6751 37.1599 22.7273 34.6816 17.5302 29.4844C12.3331 24.2873 9.85483 18.3395 11.9948 16.1994" stroke="black" stroke-width="1.5" stroke-miterlimit="10" stroke-linecap="round" stroke-linejoin="round"/>
<path d="M32.5713 14.1478L34.3205 9.55525C34.3562 9.46785 34.4799 9.46775 34.5158 9.55505L36.249 14.1478" stroke="black" stroke-width="1.5" stroke-miterlimit="10" stroke-linecap="round" stroke-linejoin="round"/>
<path d="M33.1172 13.004H35.7127" stroke="black" stroke-width="1.5" stroke-miterlimit="10" stroke-linecap="round" stroke-linejoin="round"/>
<path d="M26.7861 21.9012V17.2517L29.9296 21.8037C29.9879 21.8879 30.0503 21.8466 30.0503 21.7443L30.0068 17.243" stroke="black" stroke-width="1.5" stroke-miterlimit="10" stroke-linecap="round" stroke-linejoin="round"/>
<path d="M38.8301 9.48966V14.144C38.8815 14.1527 40.4612 14.144 40.4612 14.144" stroke="black" stroke-width="1.5" stroke-miterlimit="10" stroke-linecap="round" stroke-linejoin="round"/>
<path d="M43.0176 9.48966V14.144C43.069 14.1527 44.6487 14.144 44.6487 14.144" stroke="black" stroke-width="1.5" stroke-miterlimit="10" stroke-linecap="round" stroke-linejoin="round"/>
<path d="M30.0659 9.88741C29.6942 9.63624 29.2461 9.48966 28.7638 9.48966C27.4774 9.48966 26.4346 10.5324 26.4346 11.8188C26.4346 13.1051 27.4774 14.1479 28.7638 14.1479C29.2861 14.1479 29.7158 13.9758 30.042 13.6854C30.1095 13.6253 30.1725 13.5601 30.231 13.4903" stroke="black" stroke-width="1.5" stroke-miterlimit="10" stroke-linecap="round" stroke-linejoin="round"/>
<path d="M39.583 17.243L40.4905 21.8313C40.5239 21.9253 40.6571 21.9243 40.6892 21.83L42.1062 17.2516" stroke="black" stroke-width="1.5" stroke-miterlimit="10" stroke-linecap="round" stroke-linejoin="round"/>
<path d="M42.1064 17.243L43.5199 21.8313C43.5533 21.9253 43.6865 21.9243 43.7186 21.83L44.6298 17.2516" stroke="black" stroke-width="1.5" stroke-miterlimit="10" stroke-linecap="round" stroke-linejoin="round"/>
<path d="M37.2959 19.5721C37.2959 20.8585 36.2531 21.9012 34.9668 21.9012C33.6805 21.9012 32.6377 20.8585 32.6377 19.5721C32.6377 18.2858 33.6805 17.243 34.9668 17.243C36.2531 17.243 37.2959 18.2858 37.2959 19.5721Z" stroke="black" stroke-width="1.5" stroke-miterlimit="10" stroke-linecap="round" stroke-linejoin="round"/>
<path d="M35.1771 25.929H25.0005C23.2711 25.929 21.8691 24.527 21.8691 22.7977V8.70681C21.8691 6.97751 23.2711 5.57555 25.0005 5.57555H46.1367C47.8661 5.57555 49.2681 6.97751 49.2681 8.70681V22.7977C49.2681 24.527 47.8661 25.929 46.1367 25.929H44.5711L39.6448 30.8552C39.1517 31.3484 38.3085 30.9991 38.3085 30.3016V25.929" stroke="black" stroke-width="1.5" stroke-miterlimit="10" stroke-linecap="round" stroke-linejoin="round"/>
</g>
</svg>
