<svg width="50" height="51" viewBox="0 0 50 51" fill="none" xmlns="http://www.w3.org/2000/svg">
<g clip-path="url(#clip0_184_143)">
<mask id="mask0_184_143" style="mask-type:luminance" maskUnits="userSpaceOnUse" x="0" y="0" width="50" height="51">
<path d="M0 0.0848427H50V50.0848H0V0.0848427Z" fill="white"/>
</mask>
<g mask="url(#mask0_184_143)">
<path d="M36.8402 20.9511V19.4808C36.8402 18.5238 36.0644 17.7479 35.1072 17.7479H33.0893C32.1321 17.7479 31.3562 18.5238 31.3562 19.4808C31.3562 20.438 30.5803 21.2138 29.6232 21.2138H23.0844C22.1272 21.2138 21.3514 20.438 21.3514 19.4808C21.3514 18.5238 20.5754 17.7479 19.6184 17.7479H17.6003C16.6433 17.7479 15.8674 18.5238 15.8674 19.4808V20.9511C15.8674 21.3935 15.6981 21.8194 15.3942 22.1411L6.14053 31.9381C4.84678 33.3078 4.12598 35.1206 4.12598 37.0048V43.8921C4.12598 46.9078 6.57061 49.3524 9.58633 49.3524H43.1212C46.1369 49.3524 48.5815 46.9078 48.5815 43.8921V37.0048C48.5815 35.1206 47.8608 33.3078 46.5671 31.9381L37.3134 22.1411C37.0095 21.8194 36.8402 21.3935 36.8402 20.9511Z" stroke="black" stroke-width="1.5" stroke-miterlimit="10" stroke-linecap="round" stroke-linejoin="round"/>
<path d="M35.7338 10.7246L35.5743 9.17229C35.4093 7.56565 33.8734 6.46711 32.2996 6.8302L14.4164 10.9557C12.8427 11.3188 11.9432 12.9791 12.4987 14.4956L13.0353 15.9611C13.6014 17.5066 12.9516 19.2337 11.5072 20.0228L7.54993 22.1845C5.9925 23.0354 4.04133 22.5131 3.11711 20.998L2.53489 20.0435L2.52346 20.0241C1.91301 18.9363 0.655199 16.0784 2.05598 12.9041C2.93313 10.9163 5.18899 8.91819 8.57971 7.1259C11.8854 5.37873 17.047 3.6676 21.8923 2.54973C26.7396 1.43157 32.1307 0.708421 35.8681 0.830785C39.7017 0.956468 42.605 1.76418 44.2645 3.16702C46.9145 5.40725 47.0355 8.52805 46.9632 9.77287L46.9615 9.79504L46.8563 10.9076C46.6892 12.6745 45.164 13.9988 43.3911 13.9162L38.8868 13.7065C37.2427 13.6299 35.9021 12.362 35.7338 10.7246Z" stroke="black" stroke-width="1.5" stroke-miterlimit="10" stroke-linecap="round" stroke-linejoin="round"/>
<path d="M32.1772 43.9097C30.5319 45.0743 28.5227 45.7586 26.3535 45.7586C20.78 45.7586 16.2617 41.2405 16.2617 35.6669C16.2617 33.4998 16.9449 31.4922 18.1075 29.8478" stroke="black" stroke-width="1.5" stroke-miterlimit="10" stroke-linecap="round" stroke-linejoin="round"/>
<path d="M20.5391 27.4173C22.1826 26.2569 24.1882 25.5753 26.3531 25.5753C31.9266 25.5753 36.4448 30.0934 36.4448 35.667C36.4448 37.8346 35.7614 39.8425 34.5982 41.4873" stroke="black" stroke-width="1.5" stroke-miterlimit="10" stroke-linecap="round" stroke-linejoin="round"/>
<path d="M29.2265 35.6669C29.2265 37.2539 27.9399 38.5405 26.353 38.5405C24.766 38.5405 23.4795 37.2539 23.4795 35.6669C23.4795 34.08 24.766 32.7935 26.353 32.7935C27.9399 32.7935 29.2265 34.08 29.2265 35.6669Z" stroke="black" stroke-width="1.5" stroke-miterlimit="10" stroke-linecap="round" stroke-linejoin="round"/>
<path d="M4.38086 18.7383L2.41016 19.8149" stroke="black" stroke-width="1.5" stroke-miterlimit="10" stroke-linecap="round" stroke-linejoin="round"/>
<path d="M12.4452 14.3329L7.42773 17.0739" stroke="black" stroke-width="1.5" stroke-miterlimit="10" stroke-linecap="round" stroke-linejoin="round"/>
<path d="M46.9764 9.40836L35.5596 9.05504" stroke="black" stroke-width="1.5" stroke-miterlimit="10" stroke-linecap="round" stroke-linejoin="round"/>
<path d="M31.5479 31.5814C31.2657 31.8636 30.8083 31.8636 30.526 31.5814C30.2439 31.2991 30.2439 30.8417 30.526 30.5595C30.8083 30.2774 31.2657 30.2774 31.5479 30.5595C31.8302 30.8417 31.8302 31.2991 31.5479 31.5814Z" fill="black"/>
<path d="M22.1807 40.9485C21.8985 41.2308 21.4411 41.2308 21.1589 40.9485C20.8767 40.6663 20.8767 40.2089 21.1589 39.9267C21.4411 39.6445 21.8985 39.6445 22.1807 39.9267C22.4629 40.2089 22.4629 40.6663 22.1807 40.9485Z" fill="black"/>
<path d="M30.526 40.9485C30.2439 40.6663 30.2439 40.2089 30.526 39.9267C30.8083 39.6445 31.2657 39.6445 31.5479 39.9267C31.8302 40.2089 31.8302 40.6663 31.5479 40.9485C31.2657 41.2308 30.8083 41.2308 30.526 40.9485Z" fill="black"/>
<path d="M21.1589 31.5814C20.8767 31.2991 20.8767 30.8417 21.1589 30.5595C21.4411 30.2774 21.8985 30.2774 22.1807 30.5595C22.4629 30.8417 22.4629 31.2991 22.1807 31.5814C21.8985 31.8636 21.4411 31.8636 21.1589 31.5814Z" fill="black"/>
<path d="M32.9773 36.4766C32.5783 36.4766 32.2549 36.1531 32.2549 35.7541C32.2549 35.355 32.5783 35.0315 32.9773 35.0315C33.3764 35.0315 33.6998 35.355 33.6998 35.7541C33.6998 36.1531 33.3764 36.4766 32.9773 36.4766Z" fill="black"/>
<path d="M19.7303 36.4766C19.3312 36.4766 19.0078 36.1531 19.0078 35.7541C19.0078 35.355 19.3312 35.0315 19.7303 35.0315C20.1293 35.0315 20.4527 35.355 20.4527 35.7541C20.4527 36.1531 20.1293 36.4766 19.7303 36.4766Z" fill="black"/>
<path d="M25.6309 42.3776C25.6309 41.9786 25.9544 41.6552 26.3534 41.6552C26.7524 41.6552 27.076 41.9786 27.076 42.3776C27.076 42.7767 26.7524 43.1001 26.3534 43.1001C25.9544 43.1001 25.6309 42.7767 25.6309 42.3776Z" fill="black"/>
<path d="M25.6309 29.1304C25.6309 28.7314 25.9544 28.408 26.3534 28.408C26.7524 28.408 27.076 28.7314 27.076 29.1304C27.076 29.5295 26.7524 29.8529 26.3534 29.8529C25.9544 29.8529 25.6309 29.5295 25.6309 29.1304Z" fill="black"/>
</g>
</g>
<defs>
<clipPath id="clip0_184_143">
<rect width="50" height="50" fill="white" transform="translate(0 0.0848389)"/>
</clipPath>
</defs>
</svg>
