<svg width="51" height="51" viewBox="0 0 51 51" fill="none" xmlns="http://www.w3.org/2000/svg">
<path d="M25.7656 49.62V42.2958" stroke="black" stroke-width="1.5" stroke-miterlimit="10" stroke-linecap="round" stroke-linejoin="round"/>
<path d="M25.7656 26.1825C31.0781 26.1825 35.3848 21.8759 35.3848 16.5634C35.3848 11.2508 31.0781 6.94421 25.7656 6.94421C20.4531 6.94421 16.1465 11.2508 16.1465 16.5634C16.1465 21.8759 20.4531 26.1825 25.7656 26.1825Z" stroke="black" stroke-width="1.5" stroke-miterlimit="10" stroke-linecap="round" stroke-linejoin="round"/>
<path d="M25.7656 9.8739C25.3238 9.8739 24.8922 9.91687 24.4745 9.9989C23.3336 10.2227 22.9197 11.6459 23.7418 12.4679L24.5719 13.2981C25.1439 13.8702 25.1439 14.7976 24.5719 15.3697C23.9998 15.9418 23.0724 15.9418 22.5003 15.3697L21.6702 14.5396C20.848 13.7175 19.425 14.1314 19.2012 15.2723C19.1192 15.69 19.0762 16.1217 19.0762 16.5635C19.0762 18.8647 20.2386 20.8936 22.0081 22.0968C22.9824 22.7593 24.3008 22.0657 24.3008 20.8876C24.3008 20.0786 24.9566 19.4227 25.7656 19.4227C26.5746 19.4227 27.2305 20.0786 27.2305 20.8876C27.2305 22.0657 28.5489 22.7593 29.5232 22.0968C31.2928 20.8936 32.4551 18.8647 32.4551 16.5635C32.4551 12.8688 29.4602 9.8739 25.7656 9.8739Z" stroke="black" stroke-width="1.5" stroke-miterlimit="10" stroke-linecap="round" stroke-linejoin="round"/>
<path d="M13.8339 6.7031C11.6186 9.38083 10.2871 12.8166 10.2871 16.5634C10.2871 19.8889 11.3362 22.9693 13.1211 25.4923C13.1206 25.4923 24.5689 41.676 24.5689 41.676C24.8357 42.0506 25.2717 42.2958 25.7656 42.2958C26.2596 42.2958 26.6955 42.0506 26.9608 41.676C26.9623 41.676 38.4107 25.4923 38.4107 25.4923C40.195 22.9693 41.2441 19.8889 41.2441 16.5634C41.2441 8.01482 34.3142 1.08484 25.7656 1.08484C22.0188 1.08484 18.5831 2.41628 15.9055 4.63162" stroke="black" stroke-width="1.5" stroke-miterlimit="10" stroke-linecap="round" stroke-linejoin="round"/>
<path d="M13.6318 43.7606L15.8291 34.4111" stroke="black" stroke-width="1.5" stroke-miterlimit="10" stroke-linecap="round" stroke-linejoin="round"/>
<path d="M37.8994 43.7606L35.7021 34.4111" stroke="black" stroke-width="1.5" stroke-miterlimit="10" stroke-linecap="round" stroke-linejoin="round"/>
<path d="M21.298 37.052L15.8291 34.4111L5.89258 39.2094L1.49805 49.62L6.2459 47.3273" stroke="black" stroke-width="1.5" stroke-miterlimit="10" stroke-linecap="round" stroke-linejoin="round"/>
<path d="M8.88379 46.0533L13.6316 43.7606L25.7654 49.62L37.8992 43.7606L50.033 49.62L45.6385 39.2094L35.702 34.4111L30.2325 37.0523" stroke="black" stroke-width="1.5" stroke-miterlimit="10" stroke-linecap="round" stroke-linejoin="round"/>
</svg>
