<svg width="50" height="51" viewBox="0 0 50 51" fill="none" xmlns="http://www.w3.org/2000/svg">
<mask id="mask0_184_220" style="mask-type:luminance" maskUnits="userSpaceOnUse" x="0" y="0" width="50" height="51">
<path d="M0 0.0848427H50V50.0848H0V0.0848427Z" fill="white"/>
</mask>
<g mask="url(#mask0_184_220)">
<path d="M22.1135 16.3388L16.8947 11.1201C16.4172 10.6425 15.6437 10.6425 15.1671 11.1201L13.8459 12.4403C11.7023 14.5838 11.1232 17.8544 12.4688 20.5702C14.8625 25.4032 19.7882 32.8115 29.2784 37.4647C32.0031 38.7997 35.2892 38.2332 37.4338 36.0887L38.7843 34.7381C39.2619 34.2607 39.2619 33.4872 38.7843 33.0097L33.5665 27.7918C33.089 27.3144 32.3156 27.3144 31.838 27.7918L29.6213 30.0086C28.9826 30.6474 27.9748 30.7939 27.2139 30.3085C24.1544 28.3534 21.5539 25.7537 19.5968 22.6904C19.1105 21.9296 19.257 20.9218 19.8957 20.284L22.1135 18.0663C22.59 17.5898 22.59 16.8154 22.1135 16.3388Z" stroke="black" stroke-width="1.5" stroke-miterlimit="10" stroke-linecap="round" stroke-linejoin="round"/>
<path d="M25.9766 1.0614C25.9766 1.60066 25.5393 2.03796 25 2.03796C24.4607 2.03796 24.0234 1.60066 24.0234 1.0614C24.0234 0.522144 24.4607 0.084839 25 0.084839C25.5393 0.084839 25.9766 0.522144 25.9766 1.0614Z" fill="black"/>
<path d="M29.3769 1.45671C34.1275 2.32634 38.4995 4.60974 41.9873 8.09753C46.5244 12.6346 49.0234 18.6678 49.0234 25.0848C49.0234 31.5018 46.5244 37.535 41.9873 42.0721C37.4502 46.6093 31.417 49.1083 25 49.1083C20.958 49.1083 16.9707 48.0878 13.4502 46.1542L0.976562 49.1083L3.93066 36.6346C1.99707 33.1141 0.976562 29.1268 0.976562 25.0848C0.976562 18.6678 3.47559 12.6346 8.0126 8.09753C11.5004 4.60974 15.8724 2.32634 20.623 1.45671" stroke="black" stroke-width="1.5" stroke-miterlimit="10" stroke-linecap="round" stroke-linejoin="round"/>
</g>
</svg>
