<svg width="20" height="21" viewBox="0 0 20 21" fill="none" xmlns="http://www.w3.org/2000/svg">
<path d="M18.3334 14.1434C18.3334 17.1767 16.5251 18.985 13.4917 18.985H12.5001C12.0417 18.985 11.6667 18.61 11.6667 18.1517V13.3434C11.6667 13.1184 11.8501 12.9267 12.0751 12.9267L13.5417 12.9017C13.6584 12.8934 13.7584 12.81 13.7834 12.6934L14.0751 11.1017C14.1001 10.9517 13.9834 10.81 13.8251 10.81L12.0501 10.835C11.8167 10.835 11.6334 10.6517 11.6251 10.4267L11.5918 8.38503C11.5918 8.25169 11.7001 8.13504 11.8417 8.13504L13.8417 8.10169C13.9834 8.10169 14.0918 7.99337 14.0918 7.8517L14.0584 5.85168C14.0584 5.71002 13.9501 5.60169 13.8084 5.60169L11.5584 5.63504C10.1751 5.66004 9.07509 6.79336 9.10009 8.17669L9.14175 10.4684C9.15008 10.7017 8.96676 10.885 8.73342 10.8934L7.73341 10.91C7.59175 10.91 7.48342 11.0183 7.48342 11.16L7.50842 12.7434C7.50842 12.885 7.61675 12.9934 7.75841 12.9934L8.75842 12.9767C8.99176 12.9767 9.17507 13.16 9.18341 13.385L9.2584 18.135C9.26674 18.6017 8.89174 18.985 8.42507 18.985H6.50841C3.47508 18.985 1.66675 17.1767 1.66675 14.135V7.16002C1.66675 4.12669 3.47508 2.31836 6.50841 2.31836H13.4917C16.5251 2.31836 18.3334 4.12669 18.3334 7.16002V14.1434Z" fill="#232323" fill-opacity="0.8"/>
</svg>
