<svg width="20" height="21" viewBox="0 0 20 21" fill="none" xmlns="http://www.w3.org/2000/svg">
<path d="M13.4917 2.31836H6.50841C3.47508 2.31836 1.66675 4.12669 1.66675 7.16003V14.135C1.66675 17.1767 3.47508 18.985 6.50841 18.985H13.4834C16.5167 18.985 18.3251 17.1767 18.3251 14.1434V7.16003C18.3334 4.12669 16.5251 2.31836 13.4917 2.31836ZM10.0001 13.885C8.21675 13.885 6.76675 12.435 6.76675 10.6517C6.76675 8.86836 8.21675 7.41836 10.0001 7.41836C11.7834 7.41836 13.2334 8.86836 13.2334 10.6517C13.2334 12.435 11.7834 13.885 10.0001 13.885ZM14.9334 6.38503C14.8917 6.48503 14.8334 6.57669 14.7584 6.66003C14.6751 6.73503 14.5834 6.79336 14.4834 6.83503C14.3834 6.87669 14.2751 6.90169 14.1667 6.90169C13.9417 6.90169 13.7334 6.81836 13.5751 6.66003C13.5001 6.57669 13.4417 6.48503 13.4001 6.38503C13.3584 6.28503 13.3334 6.17669 13.3334 6.06836C13.3334 5.96003 13.3584 5.85169 13.4001 5.75169C13.4417 5.64336 13.5001 5.56003 13.5751 5.47669C13.7667 5.28503 14.0584 5.19336 14.3251 5.25169C14.3834 5.26003 14.4334 5.27669 14.4834 5.30169C14.5334 5.31836 14.5834 5.34336 14.6334 5.37669C14.6751 5.40169 14.7167 5.44336 14.7584 5.47669C14.8334 5.56003 14.8917 5.64336 14.9334 5.75169C14.9751 5.85169 15.0001 5.96003 15.0001 6.06836C15.0001 6.17669 14.9751 6.28503 14.9334 6.38503Z" fill="#232323" fill-opacity="0.8"/>
</svg>
