<svg width="203" height="30" viewBox="0 0 203 30" fill="none" xmlns="http://www.w3.org/2000/svg">
<path d="M2.50442 20.5655L-0.00195312 26.4277C1.25807 27.3002 2.90621 28.02 4.95067 28.5926C6.23529 28.9525 7.55817 29.2033 8.93025 29.326V23.0903C8.18135 22.9785 7.42151 22.7904 6.6726 22.5423C5.10099 22.0188 3.70431 21.3589 2.50442 20.5628V20.5655Z" fill="#232323"/>
<path d="M20.2705 14.4552C19.3603 13.8581 18.3627 13.3837 17.2885 13.0238C16.2144 12.6638 15.1293 12.3639 14.0333 12.1267C12.9482 11.8895 11.9505 11.655 11.0513 11.4287C10.1521 11.2051 9.41683 10.9052 8.85652 10.5562C8.29621 10.1963 8.00922 9.69732 8.00922 9.06202C8.00922 8.6394 8.14588 8.24132 8.43287 7.86778C8.71986 7.49423 9.18177 7.1834 9.81862 6.94619C10.4664 6.70898 11.3028 6.58628 12.3633 6.58628C13.5358 6.58628 14.7576 6.76078 16.0176 7.10979C17.2776 7.45879 18.5513 7.9932 19.8359 8.74028L22.1428 2.9272C20.8335 2.10649 19.3221 1.48483 17.6138 1.07312C15.9055 0.661402 14.1699 0.454182 12.3988 0.454182C9.75302 0.454182 7.54457 0.876803 5.77343 1.69751C4.0023 2.51821 2.67941 3.60067 1.80478 4.95851C0.930142 6.31635 0.498291 7.81052 0.498291 9.46556C0.498291 10.9461 0.771614 12.1785 1.32099 13.1628C1.88131 14.1471 2.60561 14.9433 3.50485 15.5513C4.40408 16.1621 5.40171 16.6583 6.5114 17.0318C7.61016 17.4054 8.69526 17.7026 9.75575 17.9289C10.8299 18.1525 11.8139 18.3897 12.724 18.6378C13.6342 18.8996 14.3722 19.1968 14.9434 19.5594C15.5037 19.9193 15.7907 20.4046 15.7907 21.0154C15.7907 21.4871 15.6404 21.8988 15.3425 22.2478C15.0418 22.5968 14.5826 22.8586 13.9567 23.044C13.7955 23.093 13.6069 23.1312 13.4074 23.1694V29.3669C15.1922 29.2061 16.7255 28.8189 18.0238 28.2218C19.7949 27.4011 21.1178 26.305 22.0034 24.9362C22.8889 23.5675 23.3372 22.0733 23.3372 20.4564C23.3372 19.0004 23.0502 17.7817 22.4899 16.811C21.9159 15.8403 21.1807 15.0551 20.2705 14.4579V14.4552Z" fill="#232323"/>
<path d="M27.0352 7.27338H35.3169V28.8925H42.9398V7.27338H51.1751V1.01313H27.0352V7.27338Z" fill="#232323"/>
<path d="M84.2501 9.14109C83.4902 7.38517 82.4407 5.86919 81.1068 4.56042C79.773 3.26529 78.1878 2.24555 76.3647 1.53664C74.5444 0.814091 72.56 0.454182 70.4008 0.454182C68.2415 0.454182 66.2463 0.814091 64.4259 1.53664C62.6056 2.24555 61.0312 3.26529 59.6974 4.58496C58.3636 5.891 57.3141 7.42334 56.5542 9.17654C55.7944 10.9325 55.4199 12.8493 55.4199 14.9133C55.4199 16.9773 55.7944 18.9459 56.5542 20.7127C57.3141 22.4796 58.3636 24.0119 59.6974 25.3289C61.0312 26.6349 62.6165 27.6574 64.4505 28.3772C66.2845 29.0861 68.2688 29.4487 70.4008 29.4487C72.5327 29.4487 74.5416 29.0888 76.3647 28.3772C78.185 27.6546 79.7703 26.6485 81.1178 25.3398C82.4789 24.0446 83.5121 22.515 84.261 20.7482C85.0099 18.9814 85.3844 17.04 85.3844 14.9106C85.3844 12.7811 84.9962 10.8916 84.2501 9.13564V9.14109ZM77.1136 18.2397C76.7528 19.2104 76.228 20.0447 75.5803 20.7536C74.9325 21.4516 74.159 21.997 73.2734 22.3596C72.3878 22.7331 71.4257 22.9185 70.4035 22.9185C69.3813 22.9185 68.4192 22.7331 67.5336 22.3596C66.648 21.9997 65.8745 21.4516 65.1994 20.7536C64.538 20.0447 64.0132 19.2104 63.6661 18.2397C63.3053 17.2691 63.1167 16.173 63.1167 14.9542C63.1167 13.7354 63.3026 12.6393 63.6661 11.6686C64.0159 10.698 64.5407 9.86364 65.1994 9.16836C65.8718 8.45945 66.6453 7.92504 67.5336 7.55149C68.4192 7.17795 69.3676 6.99254 70.4035 6.99254C71.4394 6.99254 72.3878 7.17795 73.2734 7.55149C74.159 7.92504 74.9325 8.45945 75.5803 9.16836C76.228 9.86637 76.7528 10.698 77.1136 11.6686C77.4881 12.6393 77.6739 13.7354 77.6739 14.9542C77.6739 16.173 77.4881 17.2691 77.1136 18.2397Z" fill="#232323"/>
<path d="M111.172 20.1183C112.82 19.3222 114.105 18.2152 115.015 16.7837C115.975 15.2786 116.461 13.4491 116.461 11.2951C116.461 9.14109 115.975 7.37426 115.015 5.82011C114.056 4.26595 112.67 3.08261 110.874 2.24828C109.079 1.42757 106.944 1.01586 104.487 1.01586H92.1982V28.8952H99.8212V21.4898H103.951L108.841 28.8952H117L111.172 20.1211V20.1183ZM107.605 14.3189C106.807 15.0414 105.61 15.3904 104.025 15.3904H99.8212V7.22703H104.025C105.61 7.22703 106.807 7.60057 107.605 8.32312C108.404 9.05657 108.792 10.0518 108.792 11.2978C108.792 12.5439 108.404 13.5991 107.605 14.3216V14.3189Z" fill="#232323"/>
<path d="M144.572 11.805H123.475V17.6671H144.572V11.805Z" fill="#45A3D4"/>
<path d="M144.572 1.01313H123.475V7.14796H144.572V1.01313Z" fill="#45A3D4"/>
<path d="M145.07 22.7577H123.475V28.8925H145.07V22.7577Z" fill="#45A3D4"/>
<path d="M163.035 12.1022L156.662 1.01313H148.577L158.895 18.7741V28.8925H166.529V18.9623L176.847 1.01313H169.45L163.035 12.1022Z" fill="#232323"/>
<path d="M202.148 16.8083C201.588 15.8376 200.85 15.0523 199.939 14.4552C199.029 13.8581 198.032 13.3837 196.944 13.0238C195.87 12.6638 194.785 12.3639 193.689 12.1267C192.603 11.8895 191.606 11.655 190.707 11.4287C189.807 11.2051 189.086 10.9052 188.512 10.5562C187.952 10.1963 187.665 9.69732 187.665 9.06202C187.665 8.6394 187.815 8.24132 188.088 7.86778C188.375 7.49423 188.837 7.1834 189.485 6.94619C190.122 6.70898 190.969 6.58628 192.019 6.58628C193.205 6.58628 194.427 6.76078 195.673 7.10978C196.933 7.45879 198.207 7.9932 199.491 8.74028L201.798 2.9272C200.489 2.10649 198.977 1.48483 197.283 1.07312C195.575 0.661401 193.828 0.451454 192.054 0.451454C189.408 0.451454 187.2 0.874076 185.429 1.69478C183.658 2.51548 182.335 3.59794 181.46 4.95578C180.585 6.31362 180.151 7.80506 180.151 9.4601C180.151 10.9406 180.438 12.1731 180.987 13.1574C181.537 14.1417 182.261 14.9378 183.157 15.5458C184.057 16.1566 185.054 16.6528 186.164 17.0264C187.274 17.3999 188.348 17.6971 189.419 17.9234C190.48 18.147 191.466 18.3842 192.388 18.6323C193.298 18.8941 194.036 19.1913 194.596 19.5539C195.156 19.9138 195.443 20.3992 195.443 21.0099C195.443 21.4816 195.293 21.8934 194.995 22.2424C194.708 22.5914 194.246 22.8531 193.609 23.0385C193.484 23.0767 193.336 23.1121 193.186 23.1367V29.3478C194.908 29.187 196.405 28.7998 197.676 28.2163C199.448 27.3956 200.784 26.2995 201.67 24.9308C202.544 23.562 202.993 22.0679 202.993 20.451C202.993 18.995 202.706 17.7762 202.145 16.8055L202.148 16.8083Z" fill="#232323"/>
<path d="M182.163 20.5655L179.656 26.4277C180.916 27.3002 182.564 28.02 184.609 28.5926C185.943 28.9661 187.304 29.2142 188.714 29.3397V23.1176C187.927 22.9922 187.129 22.8068 186.344 22.545C184.759 22.0215 183.376 21.3617 182.165 20.5655H182.163Z" fill="#232323"/>
</svg>
