<svg width="158" height="26" viewBox="0 0 158 26" fill="none" xmlns="http://www.w3.org/2000/svg">
<path d="M13.0889 0.916016L15.8697 9.47436H24.8684L17.5883 14.7637L20.369 23.3221L13.0889 18.0327L5.80872 23.3221L8.58949 14.7637L1.30933 9.47436H10.3081L13.0889 0.916016Z" fill="#232323"/>
<path d="M46.1174 0.916016L48.8982 9.47436H57.897L50.6168 14.7637L53.3976 23.3221L46.1174 18.0327L38.8373 23.3221L41.6181 14.7637L34.3379 9.47436H43.3367L46.1174 0.916016Z" fill="#232323"/>
<path d="M79.1463 0.916016L81.927 9.47436H90.9258L83.6456 14.7637L86.4264 23.3221L79.1463 18.0327L71.8661 23.3221L74.6469 14.7637L67.3667 9.47436H76.3655L79.1463 0.916016Z" fill="#232323"/>
<path d="M112.175 0.916016L114.956 9.47436H123.954L116.674 14.7637L119.455 23.3221L112.175 18.0327L104.895 23.3221L107.675 14.7637L100.395 9.47436H109.394L112.175 0.916016Z" fill="#232323"/>
<path d="M145.204 0.916016L147.984 9.47436H156.983L149.703 14.7637L152.484 23.3221L145.204 18.0327L137.923 23.3221L140.704 14.7637L133.424 9.47436H142.423L145.204 0.916016Z" fill="#232323"/>
</svg>
