<svg width="20" height="21" viewBox="0 0 20 21" fill="none" xmlns="http://www.w3.org/2000/svg">
<path d="M19.1924 6.71891L16.8565 9.05485C16.3846 14.5252 11.7713 18.7767 6.25022 18.7767C5.11585 18.7767 4.18069 18.597 3.47053 18.2423C2.89788 17.9556 2.6635 17.6486 2.60491 17.5611C2.55266 17.4827 2.5188 17.3936 2.50585 17.3003C2.49289 17.207 2.50119 17.112 2.53011 17.0224C2.55904 16.9328 2.60784 16.8509 2.67287 16.7827C2.73791 16.7146 2.8175 16.6621 2.90569 16.6291C2.926 16.6213 4.79944 15.9017 5.98928 14.5322C5.32943 13.9897 4.75341 13.3526 4.27991 12.6416C3.31116 11.2033 2.22678 8.70485 2.56116 4.97125C2.57176 4.85262 2.61604 4.73948 2.68878 4.64516C2.76152 4.55085 2.8597 4.47928 2.97175 4.43889C3.0838 4.39851 3.20506 4.39098 3.32125 4.4172C3.43744 4.44341 3.54372 4.50228 3.62757 4.58688C3.65491 4.61422 6.22757 7.17281 9.37288 8.0025V7.52672C9.37168 7.02781 9.47032 6.5337 9.66299 6.07349C9.85566 5.61329 10.1385 5.19628 10.4948 4.84703C10.8408 4.50151 11.2525 4.22878 11.7056 4.04496C12.1587 3.86113 12.6441 3.76993 13.133 3.77672C13.7889 3.78319 14.432 3.95926 14.9997 4.28782C15.5674 4.61637 16.0405 5.08624 16.3729 5.65172H18.7502C18.8739 5.65162 18.9948 5.68823 19.0977 5.7569C19.2006 5.82556 19.2808 5.92321 19.3281 6.03748C19.3755 6.15174 19.3878 6.27748 19.3637 6.39879C19.3395 6.52009 19.2799 6.6315 19.1924 6.71891Z" fill="#232323" fill-opacity="0.8"/>
</svg>
