<svg width="21" height="21" viewBox="0 0 21 21" fill="none" xmlns="http://www.w3.org/2000/svg">
<path d="M10.501 0.5C16.024 0.5 20.501 4.977 20.501 10.5C20.501 16.023 16.024 20.5 10.501 20.5C8.73375 20.503 6.99757 20.0353 5.47099 19.145L0.504992 20.5L1.85699 15.532C0.96595 14.0049 0.497895 12.268 0.500992 10.5C0.500992 4.977 4.97799 0.5 10.501 0.5ZM7.09299 5.8L6.89299 5.808C6.76368 5.81691 6.63734 5.85087 6.52099 5.908C6.41257 5.96951 6.31355 6.0463 6.22699 6.136C6.10699 6.249 6.03899 6.347 5.96599 6.442C5.59611 6.9229 5.39696 7.51331 5.39999 8.12C5.40199 8.61 5.52999 9.087 5.72999 9.533C6.13899 10.435 6.81199 11.39 7.69999 12.275C7.91399 12.488 8.12399 12.702 8.34999 12.901C9.45342 13.8724 10.7683 14.573 12.19 14.947L12.758 15.034C12.943 15.044 13.128 15.03 13.314 15.021C13.6052 15.0056 13.8895 14.9268 14.147 14.79C14.2778 14.7223 14.4056 14.6489 14.53 14.57C14.53 14.57 14.5723 14.5413 14.655 14.48C14.79 14.38 14.873 14.309 14.985 14.192C15.069 14.1053 15.139 14.0047 15.195 13.89C15.273 13.727 15.351 13.416 15.383 13.157C15.407 12.959 15.4 12.851 15.397 12.784C15.393 12.677 15.304 12.566 15.207 12.519L14.625 12.258C14.625 12.258 13.755 11.879 13.223 11.637C13.1673 11.6128 13.1077 11.5989 13.047 11.596C12.9786 11.5888 12.9094 11.5965 12.8442 11.6184C12.779 11.6403 12.7192 11.676 12.669 11.723C12.664 11.721 12.597 11.778 11.874 12.654C11.8325 12.7098 11.7753 12.7519 11.7098 12.7751C11.6443 12.7982 11.5733 12.8013 11.506 12.784C11.4408 12.7666 11.377 12.7446 11.315 12.718C11.191 12.666 11.148 12.646 11.063 12.61C10.4889 12.3599 9.95743 12.0215 9.48799 11.607C9.36199 11.497 9.24499 11.377 9.12499 11.261C8.7316 10.8842 8.38874 10.458 8.10499 9.993L8.04599 9.898C8.00425 9.8338 7.97003 9.76501 7.94399 9.693C7.90599 9.546 8.00499 9.428 8.00499 9.428C8.00499 9.428 8.24799 9.162 8.36099 9.018C8.47099 8.878 8.56399 8.742 8.62399 8.645C8.74199 8.455 8.77899 8.26 8.71699 8.109C8.43699 7.425 8.14766 6.74467 7.84899 6.068C7.78999 5.934 7.61499 5.838 7.45599 5.819C7.40199 5.81233 7.34799 5.807 7.29399 5.803C7.15972 5.7953 7.02508 5.79664 6.89099 5.807L7.09299 5.8Z" fill="#37708E"/>
</svg>
